<?xml version="1.0" standalone="no"?>
<!DOCTYPE svg PUBLIC "-//W3C//DTD SVG 20010904//EN"
 "http://www.w3.org/TR/2001/REC-SVG-20010904/DTD/svg10.dtd">
<svg version="1.0" xmlns="http://www.w3.org/2000/svg"
 width="256.000000pt" height="256.000000pt" viewBox="0 0 256.000000 256.000000"
 preserveAspectRatio="xMidYMid meet">

<g transform="translate(0.000000,256.000000) scale(0.100000,-0.100000)"
fill="#000000" stroke="none">
<path d="M241 2221 c-16 -29 -13 -271 4 -408 52 -405 173 -771 342 -1033 74
-114 223 -260 330 -324 186 -110 427 -158 633 -126 153 24 258 71 354 160 l44
41 72 -20 c93 -26 223 -45 255 -37 32 8 55 53 55 109 0 66 -11 75 -140 101
-63 13 -131 30 -150 38 l-35 14 3 105 c9 317 -158 680 -399 865 -126 97 -254
140 -575 194 -377 63 -532 125 -726 292 -53 46 -57 48 -67 29z m654 -934 c255
-204 586 -391 867 -489 69 -24 88 -35 88 -50 0 -29 -27 -88 -44 -94 -23 -9
-108 22 -251 91 -264 128 -528 332 -773 598 -142 154 -171 195 -72 103 47 -44
130 -115 185 -159z"/>
</g>
</svg>
